<svg xmlns="http://www.w3.org/2000/svg" xml:space="preserve" width="24.714" height="32.713" viewBox="0 0 6.539 8.655"><defs><clipPath id="a" clipPathUnits="userSpaceOnUse"/></defs><path fill="#fff" d="M-254.447 58.6c.742-4.965-3.037-7.633-8.205-9.413l1.676-6.725-4.093-1.02-1.632 6.547a171 171 0 0 0-3.28-.771l1.644-6.59-4.09-1.021-1.678 6.722c-.89-.203-1.765-.403-2.614-.614l.005-.021-5.645-1.41-1.089 4.372s3.037.696 2.973.74c1.658.413 1.957 1.51 1.907 2.38l-1.91 7.66c.115.03.263.072.426.137q-.205-.052-.432-.107l-2.677 10.731c-.203.504-.717 1.26-1.876.972.04.06-2.975-.742-2.975-.742l-2.032 4.685 5.326 1.328c.991.248 1.963.508 2.919.753l-1.694 6.802 4.088 1.02 1.678-6.73c1.117.304 2.2.583 3.262.847l-1.672 6.697 4.093 1.02 1.694-6.788c6.98 1.32 12.228.788 14.438-5.525 1.78-5.083-.089-8.015-3.761-9.927 2.674-.616 4.689-2.376 5.226-6.01zm-9.353 13.114c-1.264 5.083-9.823 2.335-12.597 1.646l2.247-9.01c2.775.692 11.673 2.063 10.35 7.364m1.267-13.188c-1.155 4.624-8.278 2.275-10.588 1.699l2.037-8.173c2.311.576 9.752 1.65 8.55 6.474" clip-path="url(#a)" style="stroke-width:.264583" transform="translate(53.14 -7.256)scale(.18321)"/></svg>