<svg xmlns="http://www.w3.org/2000/svg" xml:space="preserve" width="30.006" height="30.003" viewBox="0 0 7.939 7.938"><g fill="#fff" style="fill:#f9f9f9"><path d="M16 3.7c4 0 4.48.015 6.061.087a8.3 8.3 0 0 1 2.786.517c.651.24 1.24.624 1.724 1.122a4.64 4.64 0 0 1 1.122 1.724c.33.892.506 1.835.517 2.786.072 1.584.09 2.064.09 6.064s-.015 4.48-.087 6.061a8.3 8.3 0 0 1-.517 2.786 4.97 4.97 0 0 1-2.846 2.846 8.3 8.3 0 0 1-2.786.517c-1.581.072-2.056.087-6.061.087s-4.48-.015-6.061-.087a8.3 8.3 0 0 1-2.786-.517 4.64 4.64 0 0 1-1.724-1.122 4.64 4.64 0 0 1-1.122-1.724 8.3 8.3 0 0 1-.517-2.786C3.718 20.48 3.7 20.005 3.7 16s.015-4.48.087-6.061a8.3 8.3 0 0 1 .517-2.786 4.64 4.64 0 0 1 1.125-1.724 4.64 4.64 0 0 1 1.724-1.122 8.3 8.3 0 0 1 2.786-.517C11.52 3.718 12 3.7 16 3.7M16 1c-4.074 0-4.585.017-6.184.09a11 11 0 0 0-3.642.7c-1 .376-1.907.966-2.656 1.728a7.4 7.4 0 0 0-1.731 2.656 11 11 0 0 0-.7 3.642C1.017 11.415 1 11.926 1 16s.017 4.585.09 6.184c.026 1.245.263 2.476.7 3.642.377 1 .968 1.907 1.731 2.656a7.4 7.4 0 0 0 2.656 1.731c1.166.437 2.397.674 3.642.7 1.6.073 2.11.09 6.184.09s4.585-.017 6.184-.09a11 11 0 0 0 3.642-.7 7.68 7.68 0 0 0 4.387-4.387c.437-1.166.674-2.397.7-3.642.073-1.6.09-2.11.09-6.184s-.017-4.585-.09-6.184a11 11 0 0 0-.7-3.642 7.4 7.4 0 0 0-1.731-2.656 7.4 7.4 0 0 0-2.656-1.731 11 11 0 0 0-3.642-.7C20.585 1.017 20.074 1 16 1" style="fill:#f9f9f9" transform="translate(-.265 -.265)scale(.26458)"/><path d="M16 8.3a7.7 7.7 0 1 0 0 15.4 7.7 7.7 0 0 0 0-15.4M16 21a5 5 0 1 1 0-10 5 5 0 0 1 0 10M24.007 9.793a1.8 1.8 0 1 0 0-3.6 1.8 1.8 0 0 0 0 3.6" style="fill:#f9f9f9" transform="translate(-.265 -.265)scale(.26458)"/></g></svg>