<?xml version="1.0" encoding="UTF-8" standalone="no"?>
<!-- Created with Inkscape (http://www.inkscape.org/) -->

<svg
   width="7.9390826mm"
   height="7.9383078mm"
   viewBox="0 0 7.9390826 7.9383078"
   version="1.1"
   id="svg1"
   xml:space="preserve"
   inkscape:version="1.3.2 (091e20e, 2023-11-25, custom)"
   sodipodi:docname="socialmedia.svg"
   xmlns:inkscape="http://www.inkscape.org/namespaces/inkscape"
   xmlns:sodipodi="http://sodipodi.sourceforge.net/DTD/sodipodi-0.dtd"
   xmlns="http://www.w3.org/2000/svg"
   xmlns:svg="http://www.w3.org/2000/svg"><sodipodi:namedview
     id="namedview1"
     pagecolor="#ffffff"
     bordercolor="#000000"
     borderopacity="0.25"
     inkscape:showpageshadow="2"
     inkscape:pageopacity="0.0"
     inkscape:pagecheckerboard="0"
     inkscape:deskcolor="#d1d1d1"
     inkscape:document-units="mm"
     inkscape:zoom="2.1217063"
     inkscape:cx="-399.20699"
     inkscape:cy="623.55472"
     inkscape:window-width="2743"
     inkscape:window-height="1454"
     inkscape:window-x="-9"
     inkscape:window-y="-9"
     inkscape:window-maximized="1"
     inkscape:current-layer="Layer_x0020_1" /><defs
     id="defs1"><style
       type="text/css"
       id="style1">
   <![CDATA[
    .str0 {stroke:black;stroke-width:17.64;stroke-miterlimit:2.61313}
    .str2 {stroke:gray;stroke-width:17.64;stroke-miterlimit:2.61313}
    .str1 {stroke:gray;stroke-width:7.62;stroke-miterlimit:2.61313}
    .fil5 {fill:none}
    .fil0 {fill:black}
    .fil7 {fill:#CCCCCC}
    .fil6 {fill:white}
    .fil1 {fill:blue;fill-rule:nonzero}
    .fil8 {fill:gray;fill-rule:nonzero}
    .fil4 {fill:#999999;fill-rule:nonzero}
    .fil2 {fill:#B3B3B3;fill-rule:nonzero}
    .fil3 {fill:white;fill-rule:nonzero}
   ]]>
  </style><style
       type="text/css"
       id="style1-6">
   <![CDATA[
    .str0 {stroke:black;stroke-width:17.64;stroke-miterlimit:2.61313}
    .str2 {stroke:gray;stroke-width:17.64;stroke-miterlimit:2.61313}
    .str1 {stroke:gray;stroke-width:7.62;stroke-miterlimit:2.61313}
    .fil5 {fill:none}
    .fil0 {fill:black}
    .fil7 {fill:#CCCCCC}
    .fil6 {fill:white}
    .fil1 {fill:blue;fill-rule:nonzero}
    .fil8 {fill:gray;fill-rule:nonzero}
    .fil4 {fill:#999999;fill-rule:nonzero}
    .fil2 {fill:#B3B3B3;fill-rule:nonzero}
    .fil3 {fill:white;fill-rule:nonzero}
   ]]>
  </style></defs><g
     inkscape:label="Layer 1"
     inkscape:groupmode="layer"
     id="layer1"
     transform="translate(159.84107,-155.36862)"><g
       style="fill:#f9f9f9"
       id="g5"
       transform="matrix(0.26458333,0,0,0.26458333,-160.10565,155.10404)"><path
         d="m 16,3.7 c 4,0 4.48,0.015 6.061,0.087 0.9515,0.01123 1.8939,0.18611 2.786,0.517 0.6513,0.24043 1.2404,0.62383 1.724,1.122 0.4982,0.48357 0.8816,1.07269 1.122,1.724 0.3309,0.89213 0.5058,1.83455 0.517,2.786 C 28.282,11.52 28.3,12 28.3,16 c 0,4 -0.015,4.48 -0.087,6.061 -0.0112,0.9515 -0.1861,1.8939 -0.517,2.786 -0.2497,0.6466 -0.6319,1.2339 -1.122,1.724 -0.4901,0.4901 -1.0774,0.8723 -1.724,1.122 -0.8921,0.3309 -1.8346,0.5058 -2.786,0.517 -1.581,0.072 -2.056,0.087 -6.061,0.087 -4.005,0 -4.48,-0.015 -6.061,-0.087 C 8.99055,28.1988 8.04813,28.0239 7.156,27.693 6.50469,27.4526 5.91557,27.0692 5.432,26.571 4.93383,26.0874 4.55043,25.4983 4.31,24.847 3.97911,23.9549 3.80423,23.0125 3.793,22.061 3.718,20.48 3.7,20.005 3.7,16 3.7,11.995 3.715,11.52 3.787,9.939 3.79823,8.98755 3.97311,8.04513 4.304,7.153 4.5453,6.50141 4.92975,5.91227 5.429,5.429 5.91257,4.93083 6.50169,4.54743 7.153,4.307 8.04513,3.97611 8.98755,3.80123 9.939,3.79 11.52,3.718 12,3.7 16,3.7 Z M 16,1 C 11.926,1 11.415,1.017 9.816,1.09 8.57122,1.11637 7.33986,1.35304 6.174,1.79 5.17376,2.16644 4.26745,2.75609 3.518,3.518 2.75501,4.26716 2.16432,5.17349 1.787,6.174 1.35004,7.33986 1.11337,8.57122 1.087,9.816 1.017,11.415 1,11.926 1,16 c 0,4.074 0.017,4.585 0.09,6.184 0.02637,1.2448 0.26304,2.4761 0.7,3.642 0.37732,1.0005 0.96801,1.9068 1.731,2.656 0.74916,0.763 1.65549,1.3537 2.656,1.731 1.16586,0.437 2.39722,0.6736 3.642,0.7 1.6,0.073 2.11,0.09 6.184,0.09 4.074,0 4.585,-0.017 6.184,-0.09 1.2448,-0.0264 2.4761,-0.263 3.642,-0.7 0.996,-0.3861 1.9006,-0.9756 2.656,-1.731 0.7554,-0.7554 1.3449,-1.66 1.731,-2.656 0.437,-1.1659 0.6736,-2.3972 0.7,-3.642 0.073,-1.6 0.09,-2.11 0.09,-6.184 0,-4.074 -0.017,-4.585 -0.09,-6.184 C 30.8896,8.57122 30.653,7.33986 30.216,6.174 29.8387,5.17349 29.248,4.26716 28.485,3.518 27.7358,2.75501 26.8295,2.16432 25.829,1.787 24.6631,1.35004 23.4318,1.11337 22.187,1.087 20.585,1.017 20.074,1 16,1 Z"
         fill="#ffffff"
         id="path1-8"
         style="fill:#f9f9f9" /><path
         d="m 16.0001,8.30005 c -1.523,0 -3.0117,0.4516 -4.2779,1.29768 -1.2663,0.84607 -2.25323,2.04867 -2.83602,3.45567 -0.58279,1.407 -0.73528,2.9552 -0.43817,4.4488 0.2971,1.4937 1.03046,2.8657 2.10729,3.9426 1.0769,1.0768 2.4489,1.8102 3.9426,2.1073 1.4936,0.2971 3.0418,0.1446 4.4488,-0.4382 1.407,-0.5828 2.6096,-1.5697 3.4557,-2.836 0.8461,-1.2662 1.2977,-2.7549 1.2977,-4.2779 0,-2.0421 -0.8113,-4.0006 -2.2553,-5.4447 -1.4441,-1.444 -3.4026,-2.25525 -5.4447,-2.25525 z m 0,12.69995 c -0.989,0 -1.9557,-0.2932 -2.7779,-0.8426 -0.8222,-0.5494 -1.4631,-1.3303 -1.8415,-2.2439 -0.3785,-0.9137 -0.4775,-1.919 -0.2846,-2.8889 0.193,-0.9699 0.6692,-1.8608 1.3684,-2.5601 0.6993,-0.6992 1.5902,-1.1755 2.5601,-1.3684 0.9699,-0.1929 1.9752,-0.0939 2.8889,0.2846 0.9136,0.3784 1.6945,1.0193 2.2439,1.8415 0.5494,0.8222 0.8427,1.7889 0.8427,2.7778 0,1.3261 -0.5268,2.5979 -1.4645,3.5356 C 18.5979,20.4733 17.3261,21 16.0001,21 Z"
         fill="#ffffff"
         id="path2"
         style="fill:#f9f9f9" /><path
         d="m 24.007,9.79299 c 0.9941,0 1.8,-0.80588 1.8,-1.8 0,-0.99411 -0.8059,-1.8 -1.8,-1.8 -0.9941,0 -1.8,0.80589 -1.8,1.8 0,0.99412 0.8059,1.8 1.8,1.8 z"
         fill="#ffffff"
         id="path3"
         style="fill:#f9f9f9" /></g></g></svg>
