<svg xmlns="http://www.w3.org/2000/svg" xml:space="preserve" width="24.112" height="27.526" viewBox="0 0 6.38 7.283"><path fill="#fff" d="M442.711 254.675c11.498 79.648-70.947 96.502-118.379 95.028-3.046-.095-5.916 1.388-7.715 3.847-4.907 6.708-12.75 15.382-18.805 15.382-6.8 0-12.92 13.077-15.711 21.214-.293.854.547 1.642 1.406 1.363 75.119-24.391 104.596-32.757 117.294-30.406 10.251 1.898 29.425 36.218 37.731 53.141-20.646 1.186-27.527-17.318-32.273-20.64-3.797-2.657-5.221 9.49-5.458 15.895-4.509-2.372-10.204-5.693-10.679-15.895s-5.695-7.591-9.729-7.117-65.97 20.403-75.224 23.012-19.934 6.168-28.714 12.337c-14.712 7.117-24.204 2.135-26.815-9.964-2.088-9.68 11.47-39.461 18.51-53.141-8.701 3.242-26.768 9.821-29.426 10.201-2.577.368-35.27 25.607-52.754 39.321-1.02.8-1.676 1.972-1.911 3.246-2.797 15.199-11.725 19.453-27.203 27.418-12.456 6.409-55.956 73.257-78.324 109.344-1.547 2.495-3.817 4.412-6.254 6.049C58.07 563.847 43.6 588.121 37.73 600c-8.353-24.103 2.531-44.838 9.017-52.192-2.847-2.467-9.413-1.028-12.34 0 8.069-27.757 36.308-27.757 35.358-27.757 5.221-4.507 66.445-92.047 67.868-96.08 1.413-4.001-.911-22.709 29.86-32.966a6.3 6.3 0 0 0 1.406-.665c23.973-15.407 41.957-40.246 47.993-50.826-32.006-2.2-68.657-20.044-87.821-31.506-4.131-2.47-8.512-4.621-13.295-5.162-26.239-2.97-52.51 13.815-63.096 23.383-4.367-6.073.553-23.723 3.56-31.789-10.632-1.519-26.262 13.917-32.748 21.825-7.024-11.007-.87-30.682 3.085-39.144-14.049.38-23.572 6.801-26.578 9.964 11.628-86.591 100.569-61.408 101.565-60.258-4.746-4.934-4.35-11.387-3.56-13.997 53.867 1.424 79.021-7.591 94.92-16.844 125.295-69.984 179.281-27.044 199.214-16.25 19.934 10.794 56.122 15.183 81.157 5.219 29.9-13.523 25.399-48.378 19.34-61.681-6.644-14.591-44.138-34.756-57.427-60.259C421.921 37.513 433.5 6.5 448.895 2.178c14.667-4.119 25.142.672 33.181 7.934 5.36 4.84 20.408 8.303 26.697 10.557s16.729 5.219 16.136 6.998c-.593 1.78-10.66 1.542-12.221 1.542-3.203 0-7 .474-3.203 2.254 4.452 1.805 11.172 4.43 14.39 6.157.419.224.332.81-.126.933-21.837 5.877-41.335-6.25-55.792 7.737-14.713 14.234 16.611 25.147 32.747 42.228 16.137 17.081 32.748 37.483 19.459 83.982-10.288 35.997-53.405 66.603-75.677 78.575-1.281.689-1.983 2.16-1.775 3.6" style="fill:#f9f9f9" transform="translate(0 -.008)scale(.01215)"/></svg>