<?xml version="1.0" encoding="UTF-8" standalone="no"?>
<!-- Created with Inkscape (http://www.inkscape.org/) -->

<svg
   width="7.1810699mm"
   height="5.9186635mm"
   viewBox="0 0 7.1810699 5.9186635"
   version="1.1"
   id="svg1"
   xml:space="preserve"
   inkscape:version="1.3.2 (091e20e, 2023-11-25, custom)"
   sodipodi:docname="socialmedia.svg"
   xmlns:inkscape="http://www.inkscape.org/namespaces/inkscape"
   xmlns:sodipodi="http://sodipodi.sourceforge.net/DTD/sodipodi-0.dtd"
   xmlns="http://www.w3.org/2000/svg"
   xmlns:svg="http://www.w3.org/2000/svg"><sodipodi:namedview
     id="namedview1"
     pagecolor="#ffffff"
     bordercolor="#000000"
     borderopacity="0.25"
     inkscape:showpageshadow="2"
     inkscape:pageopacity="0.0"
     inkscape:pagecheckerboard="0"
     inkscape:deskcolor="#d1d1d1"
     inkscape:document-units="mm"
     inkscape:zoom="2.1217063"
     inkscape:cx="-399.20699"
     inkscape:cy="623.55472"
     inkscape:window-width="2743"
     inkscape:window-height="1454"
     inkscape:window-x="-9"
     inkscape:window-y="-9"
     inkscape:window-maximized="1"
     inkscape:current-layer="Layer_x0020_1" /><defs
     id="defs1"><style
       type="text/css"
       id="style1">
   <![CDATA[
    .str0 {stroke:black;stroke-width:17.64;stroke-miterlimit:2.61313}
    .str2 {stroke:gray;stroke-width:17.64;stroke-miterlimit:2.61313}
    .str1 {stroke:gray;stroke-width:7.62;stroke-miterlimit:2.61313}
    .fil5 {fill:none}
    .fil0 {fill:black}
    .fil7 {fill:#CCCCCC}
    .fil6 {fill:white}
    .fil1 {fill:blue;fill-rule:nonzero}
    .fil8 {fill:gray;fill-rule:nonzero}
    .fil4 {fill:#999999;fill-rule:nonzero}
    .fil2 {fill:#B3B3B3;fill-rule:nonzero}
    .fil3 {fill:white;fill-rule:nonzero}
   ]]>
  </style><style
       type="text/css"
       id="style1-6">
   <![CDATA[
    .str0 {stroke:black;stroke-width:17.64;stroke-miterlimit:2.61313}
    .str2 {stroke:gray;stroke-width:17.64;stroke-miterlimit:2.61313}
    .str1 {stroke:gray;stroke-width:7.62;stroke-miterlimit:2.61313}
    .fil5 {fill:none}
    .fil0 {fill:black}
    .fil7 {fill:#CCCCCC}
    .fil6 {fill:white}
    .fil1 {fill:blue;fill-rule:nonzero}
    .fil8 {fill:gray;fill-rule:nonzero}
    .fil4 {fill:#999999;fill-rule:nonzero}
    .fil2 {fill:#B3B3B3;fill-rule:nonzero}
    .fil3 {fill:white;fill-rule:nonzero}
   ]]>
  </style></defs><g
     inkscape:label="Layer 1"
     inkscape:groupmode="layer"
     id="layer1"
     transform="translate(99.211886,-156.6902)"><g
       style="fill:#f9f9f9"
       id="g3"
       transform="matrix(0.22440895,0,0,0.22440895,-99.211911,156.05811)"><path
         d="M 31.935,3.36901 C 31.9093,3.25092 31.8527,3.14176 31.771,3.05269 31.6893,2.96362 31.5854,2.89782 31.47,2.86201 c -0.4202,-0.08287 -0.8549,-0.0518 -1.259,0.09 0,0 -28.03701,10.07699 -29.638014,11.19299 -0.346,0.24 -0.461,0.379 -0.518,0.544 -0.277,0.794 0.585,1.144 0.585,1.144 l 7.226004,2.355 c 0.12205,0.0211 0.24734,0.0136 0.366,-0.022 C 9.87599,17.128 24.771,7.72201 25.632,7.40601 c 0.135,-0.041 0.235,0 0.213,0.1 C 25.493,8.71201 12.63,20.143 12.559,20.213 c -0.0345,0.0283 -0.0617,0.0646 -0.0791,0.1057 -0.0174,0.0411 -0.0246,0.0858 -0.0209,0.1303 L 11.787,27.5 c 0,0 -0.282,2.2 1.914,0 1.557,-1.559 3.051,-2.849 3.8,-3.476 2.485,1.715 5.159,3.612 6.312,4.6 0.1934,0.1879 0.4228,0.3349 0.6743,0.4321 0.2516,0.0973 0.5201,0.1428 0.7897,0.1339 1.1,-0.042 1.4,-1.245 1.4,-1.245 0,0 5.108,-20.55499 5.28,-23.30999 0.016,-0.27 0.039,-0.443 0.041,-0.628 0.0091,-0.21457 -0.0121,-0.42936 -0.063,-0.638 z"
         fill="#ffffff"
         id="path1-17"
         clip-path="url(#clipPath1)"
         style="fill:#f9f9f9" /></g></g></svg>
