<svg xmlns="http://www.w3.org/2000/svg" xml:space="preserve" width="33.715" height="23.754" viewBox="0 0 8.92 6.285"><g style="clip-rule:evenodd;fill:#fff;fill-rule:evenodd;image-rendering:optimizeQuality;shape-rendering:geometricPrecision;text-rendering:geometricPrecision"><path d="M484.899-11.38c23.425 6.3 41.87 24.865 48.13 48.443 11.377 42.73 11.377 131.884 11.377 131.884s0 89.153-11.377 131.888c-6.26 23.573-24.705 42.14-48.13 48.443-42.455 11.448-212.695 11.448-212.695 11.448s-170.24 0-212.696-11.448c-23.423-6.304-41.871-24.87-48.13-48.443C0 258.1 0 168.947 0 168.947S0 79.793 11.377 37.063c6.26-23.578 24.708-42.143 48.131-48.444 42.455-11.45 212.696-11.45 212.696-11.45s170.24 0 212.695 11.45M216.526 249.891l142.288-80.94-142.288-80.95Z" style="fill:#fff;stroke-width:1.06329" transform="translate(0 .374)scale(.01639)"/></g></svg>